<svg height="512" viewBox="0 0 195 163.22" width="512" xmlns="http://www.w3.org/2000/svg" xmlns:xlink="http://www.w3.org/1999/xlink"><linearGradient id="linear-gradient" gradientUnits="userSpaceOnUse" x1="97.5" x2="97.5" y2="163.22"><stop offset="0" stop-color="#fed133"/><stop offset=".39" stop-color="#fece32"/><stop offset=".63" stop-color="#fcc62f"/><stop offset=".82" stop-color="#fab82a"/><stop offset=".99" stop-color="#f6a423"/><stop offset="1" stop-color="#f6a323"/></linearGradient><g id="Layer_2" data-name="Layer 2"><g id="_09.cat_face" data-name="09.cat_face"><g id="group"><path d="m194.92 120.77a3.52 3.52 0 0 1 -4.14 2.72l-14-2.94a53.82 53.82 0 0 1 -8.78 16.36c-18.73 23.75-53 26.31-66.89 26.31-1.25 0-2.46 0-3.6-.06s-2.27.06-3.52.06c-13.87 0-48.18-2.56-66.91-26.31a54 54 0 0 1 -8.79-16.36l-14 2.94a3.51 3.51 0 0 1 -1.43-6.87l13.61-2.85a72.79 72.79 0 0 1 -1.51-12.94l-11.63-3.19a3.51 3.51 0 1 1 1.86-6.76l9.81 2.7a135.35 135.35 0 0 1 6.59-33.78l.08-.23.45-1.09a117.55 117.55 0 0 1 -1.22-46.38c1.1-6 3.88-9.83 8.35-11.39a13.74 13.74 0 0 1 4.5-.71c11.49 0 26.79 12 31.78 16.17a88 88 0 0 1 29.8-6.6h4.34a88 88 0 0 1 29.66 6.54c4.99-4.17 20.27-16.11 31.72-16.11a13.73 13.73 0 0 1 4.49.71c4.47 1.56 7.27 5.39 8.34 11.39a118.71 118.71 0 0 1 -1.14 46.07c.32.72.51 1.2.58 1.38l.08.21a135.31 135.31 0 0 1 6.6 33.82l9.78-2.7a3.51 3.51 0 0 1 1.86 6.76l-11.56 3.19a72.79 72.79 0 0 1 -1.51 12.94l13.61 2.85a3.5 3.5 0 0 1 2.74 4.15z" fill="url(#linear-gradient)"/><g fill="#eb8f00"><ellipse cx="55.53" cy="107.62" rx="9.66" ry="5.26"/><ellipse cx="139.47" cy="107.62" rx="9.66" ry="5.26"/><path d="m97.5 126.2c-5.38 6.54-12.63 3.23-15.09 1.82 0 8.36 6.77 18.81 15.09 18.81s15.06-10.45 15.09-18.81c-2.46 1.41-9.71 4.72-15.09-1.82z"/><path d="m110.85 105.43c0 4.46-5.34 11.91-11.93 11.91s-11.92-7.45-11.92-11.91 5.34-6.43 11.92-6.43 11.93 2 11.93 6.43z"/><path d="m159.72 38.14c-1-1.18-2.07-2.32-3.15-3.45a82.3 82.3 0 0 0 -11.64-10c3-2 11.81-7.56 14.63-5.08 2.98 2.62.81 15.18.16 18.53z"/><path d="m50 24.79a81.15 81.15 0 0 0 -11.57 9.9c-1.13 1.17-2.22 2.37-3.29 3.59-.61-3.12-2.88-16 .13-18.64 2.86-2.5 11.81 3.16 14.73 5.15z"/></g><path d="m192.21 116.62-13.61-2.85a72.79 72.79 0 0 0 1.51-12.94l11.56-3.19a3.51 3.51 0 0 0 -1.86-6.76l-9.81 2.7a135.31 135.31 0 0 0 -6.63-33.82l-.08-.21c-.07-.18-.26-.66-.58-1.38a118.71 118.71 0 0 0 1.14-46.07c-1.07-6-3.87-9.83-8.34-11.39a13.73 13.73 0 0 0 -4.46-.71c-11.45 0-26.73 11.94-31.72 16.11a88 88 0 0 0 -29.66-6.54h-4.34a88.26 88.26 0 0 0 -29.8 6.6c-4.99-4.17-20.29-16.17-31.78-16.17a13.74 13.74 0 0 0 -4.5.71c-4.47 1.56-7.25 5.39-8.35 11.39a117.55 117.55 0 0 0 1.22 46.38l-.45 1.09-.08.23a135.35 135.35 0 0 0 -6.59 33.78l-9.78-2.7a3.51 3.51 0 1 0 -1.86 6.76l11.56 3.19a72.79 72.79 0 0 0 1.51 12.94l-13.64 2.85a3.51 3.51 0 0 0 1.43 6.87l14-2.94a54 54 0 0 0 8.78 16.36c18.73 23.75 53 26.31 66.91 26.31 1.25 0 2.45 0 3.52-.06s2.35.06 3.6.06c13.87 0 48.16-2.56 66.89-26.31a53.82 53.82 0 0 0 8.79-16.36l14 2.94a3.51 3.51 0 0 0 1.43-6.87zm-31.28-110.24a7.72 7.72 0 0 1 2.5.38c2.15.75 3.51 2.87 4.15 6.46a114.41 114.41 0 0 1 .34 36 86.57 86.57 0 0 0 -11.35-14.5 82 82 0 0 0 -20.79-15.56c8.02-6.33 18.56-12.78 25.15-12.78zm-133.72 6.84c.64-3.59 2-5.71 4.15-6.46a7.72 7.72 0 0 1 2.5-.38c6.61 0 17.14 6.49 25.24 12.82a81.56 81.56 0 0 0 -20.67 15.49 86.75 86.75 0 0 0 -11.52 14.78 113.8 113.8 0 0 1 .3-36.25zm135.73 119.7c-17 21.54-49.4 23.86-62.56 23.86h-5.77c-13.15 0-45.56-2.33-62.54-23.85a47.41 47.41 0 0 1 -7.5-13.71l9.49-2a3.51 3.51 0 0 0 -1.43-6.87l-10 2.08a64.73 64.73 0 0 1 -1.3-9.84l11.33 3.12a3.38 3.38 0 0 0 .94.13 3.51 3.51 0 0 0 .98-6.84l-13.27-3.67q.51-15 6.35-33.47a76.45 76.45 0 0 1 15.4-22.74c14.33-14.77 32.65-22.59 54.44-23.23 21.79.64 40.11 8.46 54.45 23.23a76.71 76.71 0 0 1 15.38 22.69q5.85 18.45 6.36 33.52l-13.27 3.67a3.51 3.51 0 0 0 .93 6.89 3.38 3.38 0 0 0 .94-.13l11.33-3.12a64.73 64.73 0 0 1 -1.3 9.84l-9.95-2.08a3.51 3.51 0 1 0 -1.43 6.87l9.49 2a47.14 47.14 0 0 1 -7.49 13.65z"/><path d="m58.42 74.55a4.88 4.88 0 1 1 -4.87 4.88 4.89 4.89 0 0 1 4.87-4.88m0-5.94a10.82 10.82 0 1 0 10.82 10.82 10.81 10.81 0 0 0 -10.82-10.82z"/><path d="m136.58 74.55a4.88 4.88 0 1 1 -4.88 4.88 4.88 4.88 0 0 1 4.88-4.88m0-5.94a10.82 10.82 0 1 0 10.81 10.82 10.82 10.82 0 0 0 -10.81-10.82z"/><path d="m97.5 149.83c-10.15 0-18-11.72-18.09-21.8v-4.2a.59.59 0 0 1 .88-.51l3.63 2.1c2.62 1.51 7.57 3.37 11.27-1.13l1.86-2.29a.59.59 0 0 1 .9 0l1.87 2.26c3.7 4.5 8.65 2.64 11.27 1.13l3.63-2.1a.59.59 0 0 1 .88.51v4.2c-.05 10.11-7.95 21.83-18.1 21.83zm-10.37-17a.59.59 0 0 0 -.62.8c2 5.33 6.29 10.15 11 10.15s9-4.82 11-10.15a.59.59 0 0 0 -.62-.8 12.92 12.92 0 0 1 -10-2.24.6.6 0 0 0 -.68 0 12.92 12.92 0 0 1 -10.08 2.29z"/><path d="m98.93 104.9a13.39 13.39 0 0 1 5.91 1c-.49 1.84-3.24 5.5-5.91 5.5s-5.43-3.67-5.92-5.5a13.44 13.44 0 0 1 5.92-1m0-5.93c-6.59.03-11.93 2.03-11.93 6.46s5.34 11.9 11.93 11.9 11.93-7.43 11.93-11.9-5.34-6.43-11.93-6.43z"/></g></g></g></svg>