<?xml version="1.0" encoding="UTF-8"?>
<svg id="Layer_1" data-name="Layer 1" xmlns="http://www.w3.org/2000/svg" viewBox="0 0 256 256">
  <defs>
    <style>
      .cls-1 {
        fill: #fec40e;
      }
    </style>
  </defs>
  <circle class="cls-1" cx="128" cy="128" r="126.46"/>
  <path d="M159.18,47.57h-62.36c-7.09,0-12.83,5.75-12.83,12.83v135.71c0,7.09,5.75,12.83,12.83,12.83h62.36c7.09,0,12.83-5.75,12.83-12.83V60.4c0-7.09-5.75-12.83-12.83-12.83ZM158.24,190.83c0,4.2-3.4,7.6-7.6,7.6h-45.28c-4.2,0-7.6-3.4-7.6-7.6v-125.14c0-4.2,3.4-7.6,7.6-7.6h45.28c4.2,0,7.6,3.4,7.6,7.6v125.14Z"/>
  <path d="M139,73.73h-22.01c-2.03,0-3.67-1.64-3.67-3.67s1.64-3.67,3.67-3.67h22.01c2.03,0,3.67,1.64,3.67,3.67s-1.65,3.67-3.67,3.67Z"/>
  <path d="M128,188.28c-4.05,0-7.34-3.28-7.34-7.34s3.28-7.34,7.34-7.34,7.34,3.28,7.34,7.34-3.28,7.34-7.34,7.34Z"/>
</svg>