<?xml version="1.0" encoding="UTF-8"?>
<svg id="Layer_1" data-name="Layer 1" xmlns="http://www.w3.org/2000/svg" viewBox="0 0 256 256">
  <defs>
    <style>
      .cls-1 {
        fill: #fec40e;
      }
    </style>
  </defs>
  <circle class="cls-1" cx="128" cy="128" r="126.46"/>
  <path d="M60.14,148.33c-.65,0-1.27-.12-1.87-.33v14.07c0,3.08,2.5,5.59,5.59,5.59h39.4v12.65h-16.4c-3.08,0-5.59,2.5-5.59,5.59s2.5,5.59,5.59,5.59h82.26c3.08,0,5.59-2.5,5.59-5.59s-2.5-5.59-5.59-5.59h-16.4v-12.65h39.4c3.09,0,5.59-2.5,5.59-5.59v-13.77H60.14v.02Z"/>
  <path d="M197.41,137.16h.32v-63.05c0-3.09-2.5-5.59-5.59-5.59H63.87c-3.09,0-5.59,2.5-5.59,5.59v63.36c.58-.21,1.21-.33,1.87-.33h137.26v.02Z"/>
</svg>