<?xml version="1.0" encoding="UTF-8"?>
<svg id="Layer_1" data-name="Layer 1" xmlns="http://www.w3.org/2000/svg" viewBox="0 0 256 256">
  <defs>
    <style>
      .cls-1 {
        fill: #fec40e;
      }

      .cls-2 {
        fill: #010101;
      }
    </style>
  </defs>
  <circle class="cls-1" cx="128" cy="128" r="126.46"/>
  <path class="cls-2" d="M198.53,61.36h-54.48c-4.13,0-7.3,3.41-7.3,7.3v25.05H58.44c-4.62,0-8.27,3.65-8.27,8.27v71.26c0,4.62,3.65,8.27,8.27,8.27h31.86l-3.41,8.27h-3.65c-1.46,0-2.43.97-2.43,2.43s.97,2.43,2.43,2.43h44.02c1.46,0,2.43-.97,2.43-2.43s-.97-2.43-2.43-2.43h-3.65l-3.16-8.27h16.3v5.84c0,4.13,3.41,7.3,7.3,7.3h54.48c4.13,0,7.3-3.16,7.3-7.3v-118.69c0-3.89-3.41-7.3-7.3-7.3h0ZM58.44,98.57h93.64c1.95,0,3.41,1.46,3.41,3.41v62.51H55.03v-62.51c0-1.95,1.46-3.41,3.41-3.41h0ZM55.03,173.24v-3.89h100.45v3.89c0,1.95-1.46,3.41-3.41,3.41H58.44c-1.95,0-3.41-1.46-3.41-3.41h0ZM118.51,189.78h-26.51l3.41-8.27h19.7l3.41,8.27ZM200.97,187.35c0,1.46-1.22,2.43-2.43,2.43h-54.48c-1.46,0-2.43-1.22-2.43-2.43v-5.84h10.46c4.62,0,8.27-3.65,8.27-8.27v-11.92h32.59c1.46,0,2.43-.97,2.43-2.43,0-1.22-.97-2.43-2.43-2.43h-32.59v-37.46h32.59c1.46,0,2.43-.97,2.43-2.43,0-1.22-.97-2.43-2.43-2.43h-32.59v-9.24h32.59c1.46,0,2.43-.97,2.43-2.43,0-1.22-.97-2.43-2.43-2.43h-32.83c-.97-3.65-4.13-6.32-8.03-6.32h-10.46v-25.05c0-1.46,1.22-2.43,2.43-2.43h54.48c1.46,0,2.43,1.22,2.43,2.43v118.69ZM171.29,128c-5.11,0-9.49,4.13-9.49,9.49s4.13,9.49,9.49,9.49,9.49-4.13,9.49-9.49-4.38-9.49-9.49-9.49ZM171.29,142.11c-2.43,0-4.62-1.95-4.62-4.62,0-2.43,1.95-4.62,4.62-4.62,2.43,0,4.62,1.95,4.62,4.62,0,2.43-2.19,4.62-4.62,4.62ZM192.94,71.82h-43.29c-1.46,0-2.43.97-2.43,2.43v14.35c0,1.46.97,2.43,2.43,2.43h43.29c1.46,0,2.43-.97,2.43-2.43v-14.35c0-1.46-.97-2.43-2.43-2.43ZM190.51,86.17h-38.43v-9.49h38.43v9.49Z"/>
</svg>