<?xml version="1.0" encoding="UTF-8"?>
<svg id="Layer_1" xmlns="http://www.w3.org/2000/svg" version="1.1" viewBox="0 0 515 117.1">
  <!-- Generator: Adobe Illustrator 29.8.1, SVG Export Plug-In . SVG Version: 2.1.1 Build 2)  -->
  <defs>
    <style>
      .st0 {
        fill: #ffc200;
      }
    </style>
  </defs>
  <g>
    <path class="st0" d="M245.71,67.74h-13.73V1.94h37.71v11.43h-23.99v16.97h22.32v11.39h-22.32v26.01Z"/>
    <path class="st0" d="M327.22,42.49c0,8.19-2.16,14.6-6.48,19.22-4.32,4.62-10.34,6.93-18.05,6.93-4.83,0-9.09-1.06-12.78-3.17s-6.53-5.15-8.51-9.11c-1.98-3.96-2.97-8.58-2.97-13.86,0-8.22,2.14-14.61,6.44-19.17,4.29-4.56,10.32-6.84,18.09-6.84,4.83,0,9.09,1.05,12.78,3.15,3.69,2.1,6.53,5.12,8.51,9.05,1.98,3.93,2.97,8.54,2.97,13.82ZM292.43,42.49c0,4.98.82,8.75,2.45,11.3,1.64,2.55,4.3,3.83,7.99,3.83s6.29-1.27,7.9-3.8c1.6-2.54,2.41-6.31,2.41-11.32s-.81-8.72-2.43-11.21c-1.62-2.49-4.28-3.74-7.97-3.74s-6.3,1.24-7.92,3.71c-1.62,2.48-2.43,6.22-2.43,11.23Z"/>
    <path class="st0" d="M366.64,16.48c1.86,0,3.4.14,4.64.41l-1.04,12.87c-1.11-.3-2.46-.45-4.05-.45-4.38,0-7.79,1.12-10.24,3.38-2.45,2.25-3.67,5.4-3.67,9.45v25.61h-13.73V17.42h10.4l2.03,8.46h.67c1.56-2.82,3.67-5.09,6.32-6.82,2.66-1.73,5.54-2.59,8.66-2.59Z"/>
    <path class="st0" d="M403.19,68.64c-8.1,0-14.43-2.24-18.99-6.71s-6.84-10.8-6.84-18.99,2.11-14.95,6.32-19.56c4.21-4.61,10.04-6.91,17.49-6.91s12.65,2.03,16.61,6.08c3.96,4.05,5.94,9.65,5.94,16.79v6.66h-32.45c.15,3.9,1.3,6.95,3.46,9.14,2.16,2.19,5.19,3.29,9.09,3.29,3.03,0,5.9-.31,8.6-.95,2.7-.63,5.52-1.63,8.46-3.02v10.62c-2.4,1.2-4.97,2.09-7.7,2.68-2.73.58-6.06.88-9.99.88ZM401.25,26.25c-2.91,0-5.19.92-6.84,2.77-1.65,1.85-2.6,4.46-2.84,7.85h19.26c-.06-3.39-.95-6.01-2.66-7.85-1.71-1.85-4.02-2.77-6.93-2.77Z"/>
    <path class="st0" d="M469.98,52.8c0,5.16-1.79,9.09-5.38,11.79-3.59,2.7-8.95,4.05-16.09,4.05-3.66,0-6.78-.25-9.36-.74-2.58-.5-5-1.22-7.25-2.18v-11.34c2.55,1.2,5.42,2.21,8.62,3.02,3.2.81,6.01,1.21,8.44,1.21,4.98,0,7.47-1.44,7.47-4.32,0-1.08-.33-1.96-.99-2.63-.66-.67-1.8-1.44-3.42-2.3-1.62-.85-3.78-1.85-6.48-2.99-3.87-1.62-6.71-3.12-8.53-4.5-1.82-1.38-3.14-2.96-3.96-4.75s-1.24-3.98-1.24-6.59c0-4.47,1.73-7.93,5.2-10.37,3.47-2.44,8.38-3.67,14.74-3.67s11.96,1.32,17.69,3.96l-4.14,9.9c-2.52-1.08-4.88-1.96-7.07-2.66-2.19-.69-4.43-1.04-6.71-1.04-4.05,0-6.08,1.1-6.08,3.29,0,1.23.65,2.3,1.96,3.2,1.3.9,4.16,2.24,8.57,4.01,3.93,1.59,6.81,3.08,8.64,4.46,1.83,1.38,3.18,2.97,4.05,4.77.87,1.8,1.3,3.95,1.3,6.44Z"/>
    <path class="st0" d="M501.89,57.71c2.4,0,5.28-.52,8.64-1.58v10.22c-3.42,1.53-7.62,2.3-12.6,2.3-5.49,0-9.49-1.39-11.99-4.16-2.51-2.78-3.76-6.94-3.76-12.49v-24.26h-6.57v-5.81l7.56-4.59,3.96-10.62h8.78v10.71h14.09v10.31h-14.09v24.26c0,1.95.55,3.39,1.64,4.32,1.09.93,2.54,1.4,4.34,1.4Z"/>
  </g>
  <g>
    <path class="st0" d="M241.74,108.09c-3.19,0-5.52-1.2-6.99-3.59h-.13l.06,1.6c.05.94.08,1.97.08,3.09v7.9h-1.89v-30.14h1.6l.36,2.96h.11c1.43-2.24,3.7-3.36,6.83-3.36,2.8,0,4.94.92,6.41,2.76,1.47,1.84,2.21,4.51,2.21,8.03s-.77,6.05-2.32,7.93c-1.55,1.88-3.66,2.82-6.33,2.82ZM241.7,106.41c2.13,0,3.77-.79,4.94-2.37,1.16-1.58,1.75-3.79,1.75-6.62,0-6.1-2.2-9.14-6.61-9.14-2.42,0-4.19.67-5.33,1.99-1.13,1.33-1.7,3.5-1.7,6.5v.61c0,3.25.54,5.56,1.63,6.95,1.09,1.39,2.86,2.08,5.32,2.08Z"/>
    <path class="st0" d="M274.27,86.56c.88,0,1.82.09,2.83.27l-.36,1.81c-.87-.22-1.76-.32-2.69-.32-1.77,0-3.22.75-4.35,2.25-1.13,1.5-1.7,3.4-1.7,5.69v11.46h-1.89v-20.75h1.6l.19,3.74h.13c.85-1.53,1.76-2.6,2.73-3.22.97-.62,2.14-.93,3.51-.93Z"/>
    <path class="st0" d="M308.45,97.3c0,3.39-.82,6.03-2.46,7.93-1.64,1.9-3.91,2.85-6.8,2.85-1.82,0-3.42-.44-4.81-1.32-1.39-.88-2.45-2.14-3.19-3.78-.74-1.64-1.11-3.54-1.11-5.69,0-3.38.82-6.02,2.46-7.91,1.64-1.89,3.89-2.83,6.76-2.83s5.09.96,6.71,2.87c1.62,1.92,2.43,4.54,2.43,7.88ZM292.07,97.3c0,2.85.63,5.08,1.88,6.67,1.25,1.6,3.03,2.4,5.32,2.4s4.06-.8,5.32-2.4c1.25-1.6,1.88-3.82,1.88-6.67s-.63-5.08-1.9-6.66c-1.27-1.58-3.04-2.37-5.34-2.37s-4.06.79-5.3,2.36c-1.24,1.57-1.86,3.8-1.86,6.67Z"/>
    <path class="st0" d="M331.77,86.56c1.5,0,2.8.27,3.89.82,1.09.55,2.07,1.48,2.94,2.81h.11c-.08-1.6-.11-3.17-.11-4.71v-7.46h1.87v29.71h-1.24l-.48-3.17h-.15c-1.58,2.37-3.84,3.55-6.8,3.55s-5.05-.89-6.57-2.67c-1.51-1.78-2.27-4.38-2.27-7.79,0-3.59.75-6.33,2.25-8.23s3.68-2.84,6.55-2.84ZM331.77,88.27c-2.27,0-3.97.79-5.11,2.39-1.14,1.59-1.71,3.9-1.71,6.93,0,5.88,2.28,8.82,6.85,8.82,2.34,0,4.06-.68,5.15-2.04s1.64-3.61,1.64-6.74v-.33c0-3.21-.54-5.51-1.61-6.92-1.08-1.41-2.82-2.11-5.22-2.11Z"/>
    <path class="st0" d="M359.05,86.96v13.44c0,2.09.44,3.6,1.32,4.55s2.24,1.42,4.09,1.42c2.47,0,4.29-.62,5.45-1.87,1.17-1.25,1.75-3.28,1.75-6.09v-11.45h1.87v20.75h-1.6l-.34-2.86h-.11c-1.35,2.16-3.75,3.25-7.2,3.25-4.72,0-7.08-2.53-7.08-7.58v-13.55h1.87Z"/>
    <path class="st0" d="M398.73,108.09c-2.97,0-5.29-.94-6.97-2.81s-2.52-4.48-2.52-7.83.87-6.11,2.62-8.03c1.74-1.92,4.13-2.87,7.16-2.87,1.79,0,3.51.31,5.15.94l-.52,1.68c-1.79-.6-3.35-.9-4.68-.9-2.55,0-4.47.79-5.79,2.36s-1.97,3.83-1.97,6.79c0,2.8.66,4.99,1.97,6.58,1.31,1.58,3.14,2.38,5.5,2.38,1.88,0,3.63-.34,5.25-1.01v1.76c-1.32.65-3.06.97-5.21.97Z"/>
    <path class="st0" d="M424.47,106.41c1.2,0,2.24-.1,3.13-.31v1.53c-.92.31-1.97.46-3.17.46-1.83,0-3.19-.49-4.06-1.47-.87-.98-1.31-2.52-1.31-4.62v-13.4h-3.07v-1.11l3.07-.86.96-4.7h.97v5.02h6.09v1.64h-6.09v13.13c0,1.59.28,2.77.84,3.53.56.76,1.44,1.15,2.63,1.15Z"/>
    <path class="st0" d="M441.79,81.19c0-1.22.4-1.83,1.2-1.83.39,0,.7.16.93.48s.33.77.33,1.36-.11,1.02-.33,1.36-.53.5-.93.5c-.8,0-1.2-.62-1.2-1.85ZM443.95,107.71h-1.89v-20.75h1.89v20.75Z"/>
    <path class="st0" d="M478.03,97.3c0,3.39-.82,6.03-2.46,7.93-1.64,1.9-3.91,2.85-6.8,2.85-1.82,0-3.42-.44-4.81-1.32-1.39-.88-2.45-2.14-3.19-3.78-.74-1.64-1.11-3.54-1.11-5.69,0-3.38.82-6.02,2.46-7.91,1.64-1.89,3.89-2.83,6.76-2.83s5.09.96,6.71,2.87c1.62,1.92,2.43,4.54,2.43,7.88ZM461.65,97.3c0,2.85.63,5.08,1.88,6.67,1.25,1.6,3.03,2.4,5.32,2.4s4.06-.8,5.32-2.4c1.25-1.6,1.88-3.82,1.88-6.67s-.63-5.08-1.9-6.66c-1.27-1.58-3.04-2.37-5.34-2.37s-4.06.79-5.3,2.36c-1.24,1.57-1.86,3.8-1.86,6.67Z"/>
    <path class="st0" d="M508.22,107.71v-13.46c0-2.09-.44-3.61-1.32-4.55-.88-.95-2.24-1.42-4.09-1.42-2.48,0-4.3.63-5.45,1.88-1.15,1.25-1.73,3.29-1.73,6.1v11.46h-1.89v-20.75h1.6l.36,2.84h.11c1.35-2.16,3.75-3.25,7.2-3.25,4.71,0,7.06,2.53,7.06,7.58v13.57h-1.87Z"/>
  </g>
  <g>
    <path class="st0" d="M92.33,35.76v-18.44c-.8-.05-1.63-.05-2.43-.05-32.44,0-62.89,14.36-83.54,39.37l-4.86,5.88,4.88,5.88c20.7,24.98,51.13,39.32,83.52,39.32.8,0,1.63,0,2.43-.05v-18.44c-.8.02-1.63.02-2.43.02-24.23,0-47.12-9.65-63.98-26.73,16.82-17.11,39.73-26.78,63.98-26.78.83,0,1.63,0,2.43.03Z"/>
    <circle class="st0" cx="92.33" cy="53.95" r="18.01" transform="translate(-11.1 81.09) rotate(-45)"/>
    <path class="st0" d="M92.33,71.95v18.44c.8.05,1.63.05,2.43.05,32.44,0,62.89-14.36,83.54-39.37l4.86-5.88-4.88-5.88C157.58,14.34,127.15,0,94.76,0c-.8,0-1.63,0-2.43.05v18.44c.8-.02,1.63-.02,2.43-.02,24.23,0,47.12,9.65,63.98,26.73-16.82,17.11-39.73,26.78-63.98,26.78-.83,0-1.63,0-2.43-.02Z"/>
  </g>
</svg>