<?xml version="1.0" encoding="UTF-8"?>
<svg id="Layer_1" data-name="Layer 1" xmlns="http://www.w3.org/2000/svg" viewBox="0 0 256 256">
  <defs>
    <style>
      .cls-1 {
        fill: #fec40e;
      }

      .cls-2 {
        fill: #010101;
      }
    </style>
  </defs>
  <circle class="cls-1" cx="128" cy="128" r="126.46"/>
  <path class="cls-2" d="M162.57,47.31h-69.13c-6.74,0-12.23,5.48-12.23,12.22v136.93c0,6.74,5.49,12.23,12.23,12.23h69.13c6.74,0,12.23-5.48,12.23-12.23V59.53c0-6.74-5.49-12.22-12.23-12.22ZM169.9,196.46c0,4.04-3.29,7.34-7.34,7.34h-69.13c-4.05,0-7.34-3.29-7.34-7.34V59.53c0-4.04,3.29-7.34,7.34-7.34h69.13c4.05,0,7.34,3.29,7.34,7.34v136.93Z"/>
  <path class="cls-2" d="M134.92,191.32h-13.84c-1.35,0-2.45,1.09-2.45,2.45s1.1,2.44,2.45,2.44h13.84c1.35,0,2.45-1.09,2.45-2.44s-1.1-2.45-2.45-2.45ZM142.34,59.79h-19.29c-1.35,0-2.45,1.09-2.45,2.45s1.1,2.45,2.45,2.45h19.29c1.35,0,2.45-1.1,2.45-2.45,0-1.35-1.09-2.45-2.45-2.45ZM113.72,59.79h-.03c-1.35,0-2.43,1.09-2.43,2.45s1.1,2.45,2.46,2.45,2.44-1.1,2.44-2.45-1.09-2.45-2.44-2.45Z"/>
</svg>